<svg xmlns="http://www.w3.org/2000/svg" viewBox="0 0 965.42 179.77"><defs><style>.cls-1{fill:#11120f;}.cls-2{fill:#91b63e;}.cls-3{fill:#0e0e0d;}.cls-4{fill:#0d0c0d;}.cls-5{fill:#0d0e0c;}.cls-6{fill:#aaa;}.cls-7{fill:#0d0d0d;}.cls-8{fill:#0e0f0e;}.cls-9{fill:#0d0d0e;}.cls-10{fill:#10110e;}.cls-11{fill:#0c0c0e;}.cls-12{fill:#52652a;}.cls-13{fill:#485924;}.cls-14{fill:#5b6f2d;}.cls-15{fill:#506228;}.cls-16{fill:#516329;}.cls-17{fill:#0c0c0d;}.cls-18{fill:#546729;}.cls-19{fill:#37431e;}.cls-20{fill:#95bb3f;}.cls-21{fill:#94ba3f;}</style></defs><g id="Livello_2" data-name="Livello 2"><g id="Livello_1-2" data-name="Livello 1"><path class="cls-1" d="M951.62,179.77H731.88c-2.87-1.5-3.35-4.42-4.12-7.11-3.32-11.51-6.21-23.14-9.78-34.58-3-9.7-6.35-19.29-11.63-28.06a39,39,0,0,0-5.76-7.51c-4.31-4.28-4.24-5.17.36-9,8.44-7,15.59-15,19.9-25.23,4.1-9.74,5.81-19.8,3.25-30.23-2.82-11.49-9.84-19.42-20.86-23.73a55.36,55.36,0,0,0-21-3.79c-15.31.17-30.63,0-45.94.06a25,25,0,0,0-5.47.3c-2.94.64-4.16,2.51-3.74,5.47a5.14,5.14,0,0,0,.55,1.92c5.77,9.35,5,19.75,5,30.07q-.06,49.17,0,98.35c0,6.8-.75,13.25-4.29,19.2-1.93,3.24-2,6.31,1.31,8.82.36.36.7.74,1.06,1.1,6.89,1.08,13.81.34,20.7.41,5.42.06,10.87.49,16.27-.29.37-.32.76-.62,1.13-.94,3.95-2.59,3.57-5.83,1.53-9.43-2.47-4.35-4.57-8.83-3.36-14.09,1.08-10.39.15-20.8.48-31.19.08-2.43-.49-5,1.38-7.1,3.15-1.78,4.14.93,5.2,2.77a92.9,92.9,0,0,1,6,12.53c6,15.28,9.83,31.22,14.19,47,.39,1.43.79,2.91-.34,4.25H9.75C-1,171.43-3,161,4.5,149.66,7.44,145.2,8,140.46,8,135.4Q8,72.24,8,9.07C8,6,7.38,2.67,9.75,0h1c.93,1.72.47,3.59.47,5.38q0,66.55,0,133.11,0-66.56,0-133.11c0-1.79-.46-3.66.46-5.38h10c2,2.25,1.44,5,1.44,7.62q.06,67.82,0,135.63c0,2.48-.32,5,.53,7.41,1.31,5.52-.26,10.46-2.95,15.25-3.79,6.74-2.52,9.18,5,9.21,22.27.09,44.55,0,66.82.07,6,0,9.7-2.51,11.77-8,2.86-7.62,5.79-15.22,8.56-22.88a22,22,0,0,0,.86-2.87c.35-1.67.56-3.37-1-4.59s-3.22-.42-4.64.37c-6.58,3.63-13.26,6.91-20.73,8.35-3,.57-5.89,1-8.89.28-3.6-1-7.28-.37-10.91-.55-5.32-.26-6.27-1.16-6.4-6.6-.1-3.65,0-7.31,0-11q0-60,0-120.09c0-2.6-.58-5.38,1.44-7.62H281.42c3.17,2.92,3.25,7.13,4.39,10.86a55.17,55.17,0,0,1,2.37,9.57C292.07,13.49,295.33,5.87,301.4,0h69.91c.67,1.61,1.33.89,2,0h62.93c2.17,1.11,2.68,3.23,3.29,5.32,1.42,4.94,2.94,9.85,4.66,15.51,3.55-5.28,6.29-10.32,9.29-15.19,1.29-2.11,2.33-4.45,4.73-5.64H719.9a20,20,0,0,1,6.34,4.93c.63-1.8.13-3.78,1.65-4.93H947.62c6.06,6.55,8.69,14.39,8.69,23.2q0,46.68,0,93.36c0,8.13.87,15.7,6,22.64,4,5.42,4.11,11.85,1,18C960.28,163,958,169.1,955,174.87A16.23,16.23,0,0,1,951.62,179.77Z"/><path class="cls-2" d="M693.93,179.77c-5.08-17.67-9-35.69-16.07-52.75-2.08-5-3.91-10.23-7.87-14.23-2.8.77-2,3.12-2,4.94.16,11.06-.58,22.14.44,33.2a2.61,2.61,0,0,1-.47,1.87c-.43,5.12,2.12,9.23,4.44,13.47,2.76,5.06,1.89,7.33-3.32,9.65a3.58,3.58,0,0,1-1.72.44c-12.17-.37-24.34.09-36.52-.24L630,176c-5.4-2.12-6.75-4.68-3.76-9.41,4.24-6.69,5-13.86,5-21.48q-.18-51.63,0-103.28c0-7.93-.68-15.44-5-22.48C623,14.29,625.43,9,630.81,9c20.12-.19,40.39-2,60.31.65,29.42,3.89,42.59,26.93,32.91,55.17A61.66,61.66,0,0,1,701.4,95.09c-2.7,2-4.42,2.86-.45,5.64,4.85,3.39,7.42,8.87,9.92,14.15,7.37,15.56,11.49,32.2,16,48.71,1.5,5.44,2.73,11,5,16.18Z"/><path class="cls-2" d="M79.67,144.82c9.7-.34,18.47-3.59,26.69-8.55,2.57-1.56,5.19-3.6,8.13-1s1.52,5.41.44,8.26c-3.12,8.22-6.12,16.48-9.31,24.68-2.79,7.16-4.7,8.39-12.23,8.39q-34.62,0-69.24-.08c-2.62,0-5.62.5-7.07-2.41s-.18-5.7,1.84-8.2c3.3-4.08,4.1-8.95,3.86-14.06-.68-2.94,0-5.89,0-8.83q-.11-68.12,0-136.22c0-2.28-.59-4.7,1-6.77h37c1.57,2.07,1,4.49,1,6.77q0,65.41,0,130.83c0,7.19,0,7.15,7.12,7.23C72.43,144.87,76.05,144.55,79.67,144.82Z"/><path class="cls-3" d="M79.67,144.82c-4.75,1.32-9.58.71-14.39.78-3.49,0-4.44-1.53-4.41-4.89.13-18.29.08-36.59,0-54.89Q60.84,42.91,60.68,0h2c0,45.87.09,91.75-.12,137.62,0,5.18,1.45,6.63,6.44,6.33C72.5,143.74,76.27,142.71,79.67,144.82Z"/><path class="cls-4" d="M23.73,0c-.11,2-.3,4-.3,5.94q0,67.5,0,135c0,3.64.32,7.32-.66,10.9-1.8-1.8-1-4.1-1-6.16Q21.7,72.82,21.73,0Z"/><ellipse class="cls-5" cx="11.24" cy="68.83" rx="0.71" ry="97.35"/><path class="cls-6" d="M373.31,0c-.31,1-.62,2-1.17,3.86A4.94,4.94,0,0,1,371.31,0Z"/><path class="cls-2" d="M318.26,175.93c-5.35-2.79-6.7-7.56-2.67-11.54,3.36-3.33,4.06-7.13,3.8-11.36-1.11-18.43-2.31-36.84-3.5-55.26-.5-7.74-1.05-15.48-1.59-23.44-3,1.23-1.8,3.66-2.21,5.39Q300.9,127,290,174.4c-.82,3.56-2.11,4.35-5.76,3.72-10.14-1.76-16.45-7.19-18.86-17.3q-9.81-41.23-19.8-82.42c-.38-1.58-.42-3.27-2-5.08-1.4,14-2.75,27.42-4.1,40.89-1.21,12.08-2.33,24.16-3.68,36.22-.62,5.5-.13,10.14,5.35,13.27,3.1,1.78,3.48,5,2.43,8.4S240,176,236.92,176c-6.82,0-13.64.11-20.46.11-6.41,0-9.26-3-7.09-9.19,4.43-12.59,5.09-25.71,6.55-38.71,3.1-27.57,7.65-55,8.73-82.79.34-8.82.6-17.52-5.22-25.3-2.86-3.82-.85-8,4-11.1a3.13,3.13,0,0,1,2.52-.7c12.19.69,24.39-.09,36.57.41l.88.14c2.28,1.06,2.58,3.23,3.1,5.33q9,36.86,18,73.7c.41.59.58,1.65,1.71.94q8.55-37,17.13-74c.51-2.21.59-4.69,3-6l.88-.16c13.41-.31,26.81-.2,40.21-.06l.89.11c5.89,2.59,7.8,8.2,3.58,12.63-5.49,5.77-6.65,12.66-6.16,19.86,1.46,21.39,3.29,42.76,5,64.14,1.33,16.23,2.75,32.46,4.12,48.69a15.9,15.9,0,0,0,4.19,9.84c4.09,4.53,2.86,9.08-2.71,12a3.29,3.29,0,0,1-1.7.46c-11.58-.17-23.16-.21-34.74,0A3.56,3.56,0,0,1,318.26,175.93Z"/><path class="cls-2" d="M509.26,8.84c5.77,3,7,8.07,2.82,12.91s-6,10.59-5.86,17c.37,19.44,2.87,38.73,4.29,58.09,1.32,17.88,3,35.72,4.51,53.58.43,5.19,1.09,10,5,14.12,3.74,4,2.26,8.31-2.88,11.31a3,3,0,0,1-1.68.51q-17.83-.23-35.66,0a3,3,0,0,1-1.68-.51c-4.62-3.06-5.88-7.64-2.36-11.1s4.45-7.68,4.17-12.24c-1.33-21.36-2.77-42.71-4.17-64.06q-.37-5.72-.73-11.42c-.62-.3-.1-2.63-1.79-1q-11.53,49.53-23,99.06c-.67,2.91-1.76,3.63-4.78,3.19-10.54-1.57-17.22-7-19.73-17.62-6.73-28.46-13.6-56.89-20.42-85.33-.12-.47-.29-.93-.67-2.18-1.91,5.35-1.58,10.32-2.1,15.09-2.21,20.15-4.09,40.35-6.12,60.52-.62,6.14-.95,11.88,5.77,15.52,3,1.6,2.67,5.17,1.73,8.17-.88,2.8-3.08,3.57-5.87,3.55-7.16,0-14.31.12-21.46.1-5.81,0-8.56-2.82-7.05-8.52,8.76-33.13,9.12-67.41,14.07-101a189.28,189.28,0,0,0,1.71-27.37c0-6.45-1-12.43-4.87-17.93-3.29-4.65-1.58-9.3,3.77-12.28a3.1,3.1,0,0,1,1.7-.47c12.22.18,24.44.15,36.65,0a3,3,0,0,1,1.69.51c2.34,1.35,2.4,3.85,2.93,6.05q9.17,37.46,18.27,75c1.78-.84,1.53-2.47,1.83-3.78Q455.69,50.13,464,14c.49-2.14.83-4.28,3.16-5.28l.89-.11c13.15-.31,26.31.13,39.47-.22A3.46,3.46,0,0,1,509.26,8.84Z"/><path class="cls-2" d="M743.88,36c.54-5.36-1.1-10.12-3.77-14.7-4.6-7.88-2-12.55,7.14-12.45,15.63.18,31.28-.77,46.88.94,25.43,2.78,42.23,16.93,51.28,40.2,11.49,29.53,10.93,59.2-1.18,88.52-10.31,25-30.58,35.19-56.14,37.21-13.78,1.09-27.61.93-41.41.76-8.58-.11-10.8-4.12-6.59-11.44,2.35-4.1,4.26-8.29,3.77-13.19-.78-1.22-.47-2.59-.47-3.89q0-54,0-108.08C743.39,38.53,743.07,37.16,743.88,36Z"/><path class="cls-2" d="M537.43,176.61c-7-3.34-8.08-6.54-4-13.21,2.59-4.21,4.23-8.58,3.65-13.6-.77-1.22-.46-2.58-.46-3.89q0-52.53,0-105.06c0-1.31-.3-2.67.46-3.89.6-5.69-1-10.79-3.8-15.7-4.56-7.94-2-12.46,7.09-12.48,22.46,0,44.92.06,67.37-.08,4.1,0,6.74,1.46,8.09,5.18q3.58,9.84,6.95,19.76c.9,2.66.92,5.31-1.62,7.23-2.37,1.78-4.75,1.08-7-.28-11.1-6.74-23.25-8.51-36-7.82-2.88.15-4.09.94-4.05,4.07.18,11.31.17,22.62.05,33.93,0,2.9.64,4.36,3.87,4.06,8-.74,16.25,1.73,23.89-2.83,2.31-1.38,4.78-.15,4.82,3,.11,8.48.23,17-.08,25.44-.14,3.76-4.2,5.8-6.84,3.42-3.73-3.36-7.91-3.07-12.18-2.93s-9.76-1.86-12.49.87-.79,8.22-.84,12.5c-.11,11,.18,22-.11,32.93-.12,4.28,1.49,5.44,5.42,5.49,12.85.18,25.25-1.11,36-9.2,1.92-1.44,4.19-2.36,6.38-.41,2,1.77,2.1,4,1.23,6.41l-7.65,21.09c-1.18,3.27-3.77,4.92-6.86,6-.79.84-1.84.62-2.81.62q-32.85,0-65.71,0C539.26,177.25,538.21,177.48,537.43,176.61Z"/><path class="cls-2" d="M860,176.64c-7.22-3.21-8.4-6.55-4.29-13.15a26.07,26.07,0,0,0,4-14.18q0-56.4,0-112.81a29.74,29.74,0,0,0-4.33-15.64C851.12,13.73,854,8.8,862.22,8.79c22.63,0,45.26.06,67.89-.1,4.42,0,6.88,1.94,8.25,5.74,2.32,6.41,4.51,12.86,6.78,19.29.92,2.58.8,5-1.35,6.86-2.41,2.13-4.91,1.47-7.36,0-10.94-6.64-22.93-8.42-35.5-7.82-3,.15-4.45.81-4.38,4.26.21,11.31.15,22.63.07,33.94,0,2.58.42,4.18,3.51,3.88,8-.77,16.25,1.8,23.92-2.76,2.56-1.52,4.88-.22,4.88,3.32,0,8.15.13,16.3,0,24.45-.09,4-3.67,6.53-6.23,4.28-5-4.36-10.63-3.08-16.14-3.17-9.85-.15-9.85,0-9.83,9.92,0,12.15.22,24.3-.05,36.44-.09,4.26,1.44,5.39,5.4,5.45,12.87.17,25.25-1.19,36-9.25,1.74-1.3,3.83-2.22,6-.65a4.88,4.88,0,0,1,1.64,5.85c-2.7,7.85-5.6,15.64-8.55,23.4-1,2.53-3.46,3.45-5.73,4.49-.77.9-1.82.66-2.79.66q-32.9,0-65.78,0C861.84,177.25,860.8,177.47,860,176.64Z"/><path class="cls-2" d="M119.85,176.65c-7.3-2.56-8.28-5-4.36-11.74a28.74,28.74,0,0,0,4.1-14.7q0-57.15,0-114.29a28.32,28.32,0,0,0-4.1-14.7c-4.55-7.7-1.77-12.43,7.21-12.44,22.29,0,44.59.1,66.88-.1,4.85,0,7.46,2,8.93,6.25,2.13,6.13,4.2,12.27,6.39,18.37,1,2.73,1.1,5.25-1.25,7.31s-4.92,1.39-7.36-.08c-10.95-6.62-22.94-8.39-35.51-7.79-3.09.15-4.36,1-4.3,4.34.2,11.31.15,22.63.05,33.94,0,2.69.62,4.08,3.6,3.8,8-.74,16.24,1.75,23.91-2.78,2.67-1.57,4.8,0,4.8,3.45,0,8.15.14,16.3,0,24.45-.09,4-3.73,6.41-6.33,4.12-4.67-4.09-9.95-3.08-15.15-3.13-10.72-.1-10.73,0-10.72,10.55,0,12.14.12,24.29-.06,36.43,0,3.44,1.06,4.69,4.48,4.78,13,.32,25.61-.83,36.54-9,1.87-1.4,4.09-2.51,6.42-.81s2.27,4.15,1.5,6.36c-2.6,7.54-5.4,15-8.24,22.47-1,2.7-3.54,3.82-6,4.9-.78.87-1.82.64-2.79.64q-32.88,0-65.74,0C121.7,177.25,120.66,177.46,119.85,176.65Z"/><path class="cls-7" d="M743.88,36c.08,12.26.2,24.52.23,36.79q.09,35.81.08,71.62c0,2.48-.22,5-.33,7.44-1.55-1.5-1-3.43-1-5.19q0-52.74,0-105.48C742.89,39.37,742.3,37.43,743.88,36Z"/><path class="cls-8" d="M537.1,37c.08,18.06.23,36.12.23,54.18,0,19.56-.14,39.11-.23,58.66-1.54-1.49-1-3.43-1-5.18q0-51.24,0-102.47C536.14,40.39,535.56,38.46,537.1,37Z"/><path class="cls-7" d="M668,152.8c-1.37-13.21-.44-26.46-.57-39.68,0-3.34,1.46-2.15,2.59-.33-1.18,1.94-1,4.09-1,6.23,0,9.55,0,19.09,0,28.63C668.92,149.4,669.51,151.32,668,152.8Z"/><path class="cls-9" d="M537.43,176.61l71.32,0c.36.3,2.19.55.33,1s-4,.11-5.94.11q-31.32,0-62.66,0c-1.38,0-2.86.49-4.15-.44a.56.56,0,0,1,.18-.34A7.27,7.27,0,0,1,537.43,176.61Z"/><ellipse class="cls-7" cx="155.57" cy="7.48" rx="52.04" ry="0.35"/><path class="cls-9" d="M119.85,176.65l71.36,0c.37.23,1.09.58,1,.69-.27.86-1.06.45-1.61.45q-35.29,0-70.59,0a4.47,4.47,0,0,1-1.24-.36Z"/><path class="cls-7" d="M537.48,7.17h73.2v.49H537.46Z"/><path class="cls-7" d="M932.4,7.76H859.19V7.35h73Z"/><path class="cls-9" d="M860,176.64l71.39,0c.45,1.91-1.08,1.14-1.73,1.15q-34.51.06-69,0a7.54,7.54,0,0,1-1.71-.39c.05-.13.06-.32.15-.37A7.27,7.27,0,0,1,860,176.64Z"/><ellipse class="cls-3" cx="658.97" cy="7.49" rx="39.33" ry="0.35"/><ellipse class="cls-10" cx="765.34" cy="7.49" rx="30.15" ry="0.35"/><path class="cls-11" d="M467.2,8a.64.64,0,0,1,.64-1q20.34,0,40.7,0c.14,0,.38.08.41.17a4.7,4.7,0,0,1,.1.84,4.37,4.37,0,0,1-1.83.74c-12.75.39-25.5.28-38.25.06A3.14,3.14,0,0,1,467.2,8Z"/><path class="cls-11" d="M306.49,8c-.33-1.54.9-1,1.5-1q19.36,0,38.73,0c.62,0,1.8-.52,1.59,1a5.35,5.35,0,0,1-3.76,1q-17.15,0-34.3,0A5.32,5.32,0,0,1,306.49,8Z"/><path class="cls-12" d="M306.49,8l41.82,0a2.71,2.71,0,0,1,.05.75l-.06.48c-13.94.47-27.89.3-41.84.08l-.08-.45A5.9,5.9,0,0,1,306.49,8Z"/><path class="cls-12" d="M467.2,8l41.85,0c.08.27.14.54.21.81l-1.2.32c-13.61.59-27.22.43-40.82.07a.6.6,0,0,1-.06-.49A2.69,2.69,0,0,1,467.2,8Z"/><path class="cls-4" d="M223.57,8.2c.84-1.4,2.23-1.2,3.54-1.2q17.35,0,34.72,0c.62,0,1.82-.52,1.55,1-.42.26-.78.67-1.3.68C249.24,8.9,236.39,9.75,223.57,8.2Z"/><path class="cls-9" d="M668.84,176.72c.36,1.55-.88,1-1.48,1q-17.86,0-35.74,0c-.62,0-1.82.52-1.56-1a3.13,3.13,0,0,1,1.77-.83q17.34-.36,34.69,0A5.56,5.56,0,0,1,668.84,176.72Z"/><path class="cls-13" d="M385.38,9.17l-1.14-.27a6.85,6.85,0,0,0,.07-.78c6.37-1.35,12.82-.57,19.22-.54,6.9,0,13.84-.9,20.71.56a7.32,7.32,0,0,0,0,.81l-1.11.21Q404.27,10,385.38,9.17Z"/><path class="cls-13" d="M223.57,8.2,263.38,8a5.29,5.29,0,0,1,.06.8l0,.46c-12.61.24-25.23.52-37.84-.14L223.47,9C223.51,8.71,223.54,8.46,223.57,8.2Z"/><path class="cls-4" d="M424.24,8.14l-39.93,0c.91-1.3,2.29-1.12,3.6-1.12h32.74C422,7,423.34,6.82,424.24,8.14Z"/><path class="cls-14" d="M668.84,176.72l-38.78,0A3.2,3.2,0,0,1,630,176l.09-.47c12.6-.36,25.2-.52,37.81.08l1.22.31C669,176.19,668.93,176.46,668.84,176.72Z"/><path class="cls-7" d="M356.29,176.64c-.7.36-1.4,1.05-2.11,1.05-11.73.07-23.46.06-35.19.06-.14,0-.38-.08-.41-.17a4.74,4.74,0,0,1-.13-.84,7.9,7.9,0,0,1,4.29-1H352A9.92,9.92,0,0,1,356.29,176.64Z"/><path class="cls-7" d="M517.06,176.55c-.84,1.4-2.23,1.21-3.53,1.21q-15.87,0-31.73,0c-1.31,0-2.7.2-3.53-1.21,3.17-1.28,6.51-.84,9.77-.73C497.71,176.12,507.42,174.86,517.06,176.55Z"/><path class="cls-15" d="M517.06,176.55H478.27c0-.25-.07-.49-.12-.74l1.14-.25q18.38-.7,36.75,0l1.13.25C517.12,176.06,517.09,176.3,517.06,176.55Z"/><path class="cls-16" d="M356.29,176.64l-37.84.1c-.07-.27-.13-.54-.19-.81l1.2-.32c11.92-.56,23.85-.51,35.78,0l1.17.3A4.81,4.81,0,0,0,356.29,176.64Z"/><ellipse class="cls-7" cx="190.04" cy="87.39" rx="0.34" ry="18.82"/><ellipse class="cls-17" cx="930.15" cy="87.39" rx="0.32" ry="18.79"/><path class="cls-18" d="M473.27,76c-.08-1.24-.3-2.54,1.45-3.41.82,1.46.58,2.94.34,4.42Z"/><path class="cls-19" d="M286.26,88.79c-.05.7.19,1.85-1,1.48-1-.32-.8-1.5-.73-2.42Z"/><path class="cls-1" d="M667.84,33.9c8.81-3.5,18.25.15,21.93,8.47,7.49,17-3.11,40.6-20.82,46.42-1.5-1.89-1-4.13-1-6.23C667.86,66.34,668.11,50.12,667.84,33.9Z"/><path class="cls-4" d="M667.84,33.9c1.79,1.59,1.08,3.72,1.09,5.62.05,16.43,0,32.85,0,49.27-1.85.12-1.63-1.28-1.62-2.37q0-25.82.11-51.63C667.44,34.49,667.7,34.19,667.84,33.9Z"/><path class="cls-20" d="M667.87,175.61l-37.81-.08c7.33-1.68,14.77-.62,22.15-.66C657.41,174.84,662.73,173.75,667.87,175.61Z"/><path class="cls-20" d="M306.46,9.31c14-.59,27.9-.43,41.84-.08-2.47,1.46-5.18.77-7.76.7C329.18,9.63,317.8,10.86,306.46,9.31Z"/><path class="cls-21" d="M225.56,9.14l37.84.14c-8.68,1.56-17.44.48-26.15.62C233.37,10,229.35,10.92,225.56,9.14Z"/><path class="cls-21" d="M355.24,175.58l-35.78,0c2.76-1.69,5.83-.86,8.7-.76C337.19,175.16,346.26,173.72,355.24,175.58Z"/><path class="cls-20" d="M467.24,9.23l40.82-.07c-1.41,1.28-3.14.8-4.75.81Q487.67,10,472,10C470.41,10,468.69,10.37,467.24,9.23Z"/><path class="cls-21" d="M385.38,9.17h37.79c-2.44,1.61-5.17.85-7.73.76C405.42,9.6,395.36,11,385.38,9.17Z"/><path class="cls-21" d="M516,175.56H479.28c3.47-1.65,7.16-.79,10.7-.71C498.67,175.06,507.4,173.82,516,175.56Z"/><path class="cls-1" d="M780.71,92.36V38.47c0-5.1,1.14-6,6.29-5.2,7.64,1.23,12.88,5.87,16.85,12.15,6.95,11,9.59,23.35,10.69,36,1.24,14.29.77,28.58-2.75,42.62a49.56,49.56,0,0,1-9.34,19.12,22.83,22.83,0,0,1-16.2,8.77c-4.08.41-5.61-.88-5.56-5.19.2-18.12.08-36.25.08-54.38Z"/></g></g></svg>